# xmcd
#
# Track frame offsets:
#  150
#  29027
#  51078
#  68281
#  96936
#  120129
#  137611
#  163033
#  180487
#  199222
#  214307
#  231036
#
# Disc length: 3377 seconds
#
# Revision: 0
# Processed by: cddbd v1.5.2PL0 Copyright (c) Steve Scherf et al.
# Submitted via: Collectorz.com_Music_Collector 6.11
#
DISCID=a00d2f0c
DTITLE=Atlanta Rhythm Section - Atlanta Rhythm Section - Greatest Hits
DYEAR=1999
DGENRE=
TTITLE0=So Into You
TTITLE1=Champayne Jam
TTITLE2=Junkin'
TTITLE3=Imaginary Lover
TTITLE4=Spooky
TTITLE5=Doraville
TTITLE6=Georgia Rhythm
TTITLE7=Free Spirit
TTITLE8=I'm Not Gonna Let It Bother Me Tonight
TTITLE9=Do It Or Die
TTITLE10=Dog Days
TTITLE11=Homesick
EXTD=
EXTT0=
EXTT1=
EXTT2=
EXTT3=
EXTT4=
EXTT5=
EXTT6=
EXTT7=
EXTT8=
EXTT9=
EXTT10=
EXTT11=
PLAYORDER=
